Coordinates
version=1
nRows=16
nColumns=40
inDegrees=yes

Units are S.I. units (second, meters, Newtons, ...)
If the header above contains a line with 'inDegrees', this indicates whether rotational values are in degrees (yes) or radians (no).

endheader
time	pelvis_tilt	pelvis_list	pelvis_rotation	pelvis_tx	pelvis_ty	pelvis_tz	hip_flexion_r	hip_adduction_r	hip_rotation_r	knee_angle_r	knee_angle_r_beta	ankle_angle_r	subtalar_angle_r	mtp_angle_r	hip_flexion_l	hip_adduction_l	hip_rotation_l	knee_angle_l	knee_angle_l_beta	ankle_angle_l	subtalar_angle_l	mtp_angle_l	lumbar_extension	lumbar_bending	lumbar_rotation	arm_flex_r	arm_add_r	arm_rot_r	elbow_flex_r	pro_sup_r	wrist_flex_r	wrist_dev_r	arm_flex_l	arm_add_l	arm_rot_l	elbow_flex_l	pro_sup_l	wrist_flex_l	wrist_dev_l
      8.65000000	      9.17943372	     -5.52270764	    179.73841657	      0.34027112	      0.86341391	     -0.62238985	     44.39093506	    -12.00659704	     -1.30425177	     38.42939397	      0.67071945	      5.69787316	      0.00000000	      0.00000000	     40.56101610	     -6.90176620	    -16.30338093	     37.44121291	      0.65347244	      4.15735879	      0.00000000	      0.00000000	    -54.27103592	     -4.42764370	     -9.49462577	     50.51669061	      2.47903822	     41.83201505	      3.95627922	      9.98663336	      0.00000000	      0.00000000	     56.52556192	    -12.89057399	     72.53058116	      4.09163227	     83.16488789	      0.00000000	      0.00000000
      8.65500000	      9.08253250	     -5.96744859	    179.75379113	      0.33950809	      0.86539946	     -0.62319160	     44.01315683	    -12.37262094	     -1.22023665	     37.93630999	      0.66211352	      5.46201708	      0.00000000	      0.00000000	     39.72245864	     -6.37903684	    -16.78022070	     36.21022595	      0.63198767	      3.73299832	      0.00000000	      0.00000000	    -54.22789698	     -4.82318403	     -9.83818103	     50.20320855	      2.53316425	     41.88342018	      4.06488629	     10.04666156	      0.00000000	      0.00000000	     56.35786418	    -12.97430984	     72.43256645	      4.05391837	     83.15092213	      0.00000000	      0.00000000
      8.66000000	      9.04945144	     -5.64712775	    179.74092993	      0.33983237	      0.86689540	     -0.62256504	     43.59369888	    -12.14664905	     -1.56116671	     37.28998329	      0.65083299	      4.99091234	      0.00000000	      0.00000000	     39.50091429	     -6.54308509	    -16.60823516	     35.76226259	      0.62416923	      3.51204214	      0.00000000	      0.00000000	    -54.04604487	     -4.52084801	     -9.55303132	     50.16001492	      2.44356565	     41.93695856	      4.03639583	     10.05768420	      0.00000000	      0.00000000	     56.13892033	    -12.89710314	     72.42029203	      4.07301655	     83.14638031	      0.00000000	      0.00000000
      8.66500000	      9.19800621	     -5.79178912	    179.76013466	      0.33909813	      0.86761795	     -0.62341690	     43.56196131	    -12.26033301	     -1.69054028	     37.03603188	      0.64640070	      4.95877907	      0.00000000	      0.00000000	     39.44065542	     -6.51659825	    -17.03791589	     35.52041882	      0.61994826	      3.29647872	      0.00000000	      0.00000000	    -53.61889445	     -4.73016725	     -9.57210857	     49.76160592	      2.43571441	     41.91392956	      3.95259565	     10.04857220	      0.00000000	      0.00000000	     55.83041333	    -12.87604946	     72.41784308	      4.07914339	     83.15469933	      0.00000000	      0.00000000
      8.67000000	      9.26764065	     -5.77809509	    179.75549567	      0.33923167	      0.86871087	     -0.62318527	     43.41633817	    -12.26329623	     -1.76425656	     36.62190646	      0.63917285	      4.62635539	      0.00000000	      0.00000000	     39.26465023	     -6.43479143	    -17.06435756	     35.00640009	      0.61097694	      2.93527683	      0.00000000	      0.00000000	    -53.29782642	     -4.71302621	     -9.57030507	     49.54226008	      2.42812985	     41.91977300	      3.96202204	     10.05705743	      0.00000000	      0.00000000	     55.57910190	    -12.87291151	     72.40685470	      4.06341574	     83.15666419	      0.00000000	      0.00000000
      8.67500000	      9.29297058	     -5.70862142	    179.74308582	      0.33917723	      0.86979823	     -0.62262725	     43.21345289	    -12.27988346	     -2.02499758	     36.23480802	      0.63241670	      4.36547106	      0.00000000	      0.00000000	     39.12223269	     -6.43630420	    -17.17048975	     34.69918053	      0.60561495	      2.77917024	      0.00000000	      0.00000000	    -53.01350195	     -4.61808662	     -9.47712035	     49.39835649	      2.35747004	     41.91827761	      3.93605303	     10.05623500	      0.00000000	      0.00000000	     55.26819742	    -12.82411462	     72.39331172	      4.07903185	     83.16309806	      0.00000000	      0.00000000
      8.68000000	      9.11788187	     -5.58552527	    179.74469167	      0.33890416	      0.87157364	     -0.62277657	     42.61018292	    -12.16443780	     -2.24228879	     35.57988155	      0.62098608	      3.97916487	      0.00000000	      0.00000000	     38.53858271	     -6.41240344	    -17.13211279	     33.94381651	      0.59243136	      2.53105852	      0.00000000	      0.00000000	    -52.98084694	     -4.51901925	     -9.34610289	     49.24186088	      2.26526313	     41.99025681	      4.02661271	     10.09293184	      0.00000000	      0.00000000	     55.10960734	    -12.76880229	     72.28156889	      4.06316552	     83.13901501	      0.00000000	      0.00000000
      8.68500000	      9.22620953	     -5.74914587	    179.76279563	      0.33802171	      0.87212484	     -0.62363495	     42.57616938	    -12.30167238	     -2.37625160	     35.41584053	      0.61812302	      4.02596331	      0.00000000	      0.00000000	     38.47023938	     -6.36234583	    -17.52206097	     33.77826141	      0.58954188	      2.37878856	      0.00000000	      0.00000000	    -52.55695433	     -4.74996628	     -9.36816672	     48.84808470	      2.26661577	     41.96871712	      3.95030705	     10.08507475	      0.00000000	      0.00000000	     54.74889964	    -12.74455646	     72.26583000	      4.08606405	     83.14792414	      0.00000000	      0.00000000
      8.69000000	      9.17610901	     -5.60638529	    179.74486950	      0.33836804	      0.87334585	     -0.62283931	     42.27635727	    -12.21677942	     -2.49248990	     34.94618157	      0.60992593	      3.60762527	      0.00000000	      0.00000000	     38.17611263	     -6.30141846	    -17.29689207	     33.20230965	      0.57948962	      2.11872058	      0.00000000	      0.00000000	    -52.33724587	     -4.56048887	     -9.30812678	     48.73119360	      2.23480870	     42.03585940	      4.00907536	     10.11043864	      0.00000000	      0.00000000	     54.50144998	    -12.72996501	     72.21060911	      4.08883216	     83.13979576	      0.00000000	      0.00000000
      8.69500000	      9.23145739	     -5.76965849	    179.76309551	      0.33748189	      0.87385402	     -0.62362518	     42.20645830	    -12.35808740	     -2.60537777	     34.81832444	      0.60769440	      3.66130891	      0.00000000	      0.00000000	     38.07934020	     -6.23116333	    -17.61828590	     33.08735410	      0.57748327	      1.98283162	      0.00000000	      0.00000000	    -51.94544206	     -4.76822944	     -9.32389907	     48.35210249	      2.21150208	     42.01776352	      3.92398983	     10.10033784	      0.00000000	      0.00000000	     54.15744120	    -12.72378400	     72.19957102	      4.10089659	     83.14892484	      0.00000000	      0.00000000
      8.70000000	      9.15283762	     -6.15315652	    179.75645184	      0.33703447	      0.87491096	     -0.62361811	     42.07947609	    -12.73352496	     -2.50625027	     34.68615360	      0.60538759	      3.55116352	      0.00000000	      0.00000000	     37.55294514	     -5.73160013	    -17.85398558	     32.31376783	      0.56398164	      1.69228192	      0.00000000	      0.00000000	    -51.74229248	     -5.07601144	     -9.64772546	     47.98594252	      2.24189148	     42.21143755	      4.03173208	     10.15858024	      0.00000000	      0.00000000	     53.84210511	    -12.83280192	     72.09457016	      4.15254416	     83.13194342	      0.00000000	      0.00000000
      8.70500000	      9.15920383	     -6.16020778	    179.75193510	      0.33664757	      0.87551656	     -0.62363354	     41.95729256	    -12.75624401	     -2.61741254	     34.51465734	      0.60239441	      3.49974270	      0.00000000	      0.00000000	     37.46210392	     -5.72370234	    -17.98103037	     32.19207655	      0.56185773	      1.60150285	      0.00000000	      0.00000000	    -51.39887492	     -5.10613485	     -9.59185854	     47.71366166	      2.20770647	     42.21214667	      3.95553781	     10.15011269	      0.00000000	      0.00000000	     53.50252514	    -12.80668280	     72.09437809	      4.16769906	     83.14154896	      0.00000000	      0.00000000
      8.71000000	      9.12871229	     -6.07504097	    179.75305666	      0.33634356	      0.87638802	     -0.62348066	     41.69334015	    -12.69158674	     -2.75288530	     34.16055096	      0.59621409	      3.28485578	      0.00000000	      0.00000000	     37.21765511	     -5.68602697	    -17.80565112	     31.78473482	      0.55474827	      1.48176363	      0.00000000	      0.00000000	    -51.10422455	     -5.03093806	     -9.50333482	     47.46810582	      2.15629638	     42.30894050	      3.94949158	     10.16162279	      0.00000000	      0.00000000	     53.18909501	    -12.77002914	     72.07921920	      4.17129996	     83.14161473	      0.00000000	      0.00000000
      8.71500000	      9.06800720	     -6.14893831	    179.74628746	      0.33583506	      0.87688632	     -0.62353346	     41.53683436	    -12.78073079	     -2.82133970	     34.04435250	      0.59418604	      3.26809845	      0.00000000	      0.00000000	     37.07321605	     -5.62629645	    -17.95798765	     31.72859939	      0.55376853	      1.44289489	      0.00000000	      0.00000000	    -50.79690273	     -5.11240910	     -9.47414382	     47.17196388	      2.10857486	     42.30545936	      3.87452233	     10.15194677	      0.00000000	      0.00000000	     52.84309378	    -12.71692238	     72.07712038	      4.19925304	     83.15117442	      0.00000000	      0.00000000
      8.72000000	      9.02213623	     -6.20217996	    179.74622331	      0.33536754	      0.87750429	     -0.62347024	     41.36920354	    -12.85463240	     -2.92332772	     33.88686278	      0.59143733	      3.23485452	      0.00000000	      0.00000000	     36.90819903	     -5.53748639	    -17.94837503	     31.57479004	      0.55108405	      1.34006729	      0.00000000	      0.00000000	    -50.48246250	     -5.16675994	     -9.45341316	     46.83520071	      2.07093144	     42.30618104	      3.82240280	     10.14628938	      0.00000000	      0.00000000	     52.50310371	    -12.68492279	     72.07823940	      4.21024642	     83.15922792	      0.00000000	      0.00000000
      8.72500000	      8.69016217	     -6.30380130	    179.74605076	      0.33475265	      0.87903423	     -0.62337405	     40.78255532	    -13.00289745	     -3.09101964	     33.55651286	      0.58567163	      3.10415673	      0.00000000	      0.00000000	     36.13400025	     -5.26204657	    -17.98640570	     30.81984199	      0.53790772	      1.15177463	      0.00000000	      0.00000000	    -50.52333447	     -5.23699361	     -9.53055199	     46.52716382	      1.90682486	     42.62953006	      4.03231904	     10.22562792	      0.00000000	      0.00000000	     52.25285141	    -12.64985832	     72.13797037	      4.17572408	     83.13292836	      0.00000000	      0.00000000
